# xmcd CD database file
#
# Track frame offsets:
#	150
#	14838
#	28581
#	42116
#	55663
#	70287
#	84064
#	97572
#	110033
#	123651
#	137867
#	151381
#
# Disc length: 2192 seconds
#
# Revision: 2
# Processed by: cddbd v1.5.2PL0 Copyright (c) Steve Scherf et al.
# Submitted via: CDex 1.81
#
DISCID=97088e0c
DTITLE=John Lee Hooker - The Best Of
DYEAR=2003
DGENRE=Blues
TTITLE0=Don't Go Baby
TTITLE1=Moaning Blues
TTITLE2=Late Last Night
TTITLE3=Slim's Stomp
TTITLE4=Wandering Blues
TTITLE5=I'm Gonna Kill That Woman
TTITLE6=Nightmare Blues
TTITLE7=Don't You Remember Me
TTITLE8=Thinking Blues
TTITLE9=The Numbers
TTITLE10=Heart Trouble Blues
TTITLE11=Devil's Jump
EXTD=YEAR: 2003
EXTT0=
EXTT1=
EXTT2=
EXTT3=
EXTT4=
EXTT5=
EXTT6=
EXTT7=
EXTT8=
EXTT9=
EXTT10=
EXTT11=
PLAYORDER=
